<svg width="985" height="56" viewBox="0 0 985 56" fill="none" xmlns="http://www.w3.org/2000/svg">
<rect width="985" height="56" fill="#F4F4F4"/>
<path d="M49.4746 35H51.1357L46.46 22.3174H44.8955L40.2197 35H41.8809L43.1553 31.3701H48.2002L49.4746 35ZM45.6514 24.2422H45.7041L47.7344 30.0254H43.6211L45.6514 24.2422ZM56.8926 35.1582C59.2305 35.1582 60.7773 33.3037 60.7773 30.4297C60.7773 27.5645 59.2217 25.7012 56.9189 25.7012C55.627 25.7012 54.5635 26.3428 53.9922 27.3887H53.957V22.3174H52.4277V35H53.8867V33.4531H53.9219C54.5107 34.5078 55.5566 35.1582 56.8926 35.1582ZM56.5938 27.0459C58.2109 27.0459 59.2129 28.3555 59.2129 30.4297C59.2129 32.5215 58.2109 33.8135 56.5938 33.8135C55.0469 33.8135 53.9482 32.4688 53.9482 30.4297C53.9482 28.3994 55.0469 27.0459 56.5938 27.0459ZM66.1211 35.1582C68.6436 35.1582 70.3486 33.3389 70.3486 30.4297C70.3486 27.5117 68.6436 25.7012 66.1211 25.7012C63.5898 25.7012 61.8848 27.5117 61.8848 30.4297C61.8848 33.3389 63.5898 35.1582 66.1211 35.1582ZM66.1211 33.8135C64.5039 33.8135 63.4404 32.583 63.4404 30.4297C63.4404 28.2764 64.5039 27.0459 66.1211 27.0459C67.7383 27.0459 68.793 28.2764 68.793 30.4297C68.793 32.583 67.7383 33.8135 66.1211 33.8135ZM79.4014 25.8594H77.8721V31.2295C77.8721 32.7852 76.9756 33.8047 75.4902 33.8047C74.0752 33.8047 73.3809 33.0049 73.3809 31.5195V25.8594H71.8516V31.792C71.8516 33.8662 73.0205 35.1582 75.0156 35.1582C76.4219 35.1582 77.3711 34.5693 77.916 33.5146H77.9512V35H79.4014V25.8594ZM81.8799 23.6533V25.8594H80.5176V27.1162H81.8799V32.627C81.8799 34.3848 82.5303 35.0703 84.209 35.0703C84.5693 35.0703 84.9912 35.0439 85.1758 35V33.7168C85.0703 33.7344 84.7188 33.7607 84.543 33.7607C83.7607 33.7607 83.4092 33.3828 83.4092 32.5479V27.1162H85.1846V25.8594H83.4092V23.6533H81.8799Z" fill="black"/>
<path d="M181.116 22.3174V35H183.384V30.8076H185.95C188.517 30.8076 190.318 29.0938 190.318 26.5625C190.318 24.0312 188.569 22.3174 186.047 22.3174H181.116ZM183.384 24.1719H185.449C187.075 24.1719 188.016 25.042 188.016 26.5625C188.016 28.1006 187.066 28.9795 185.44 28.9795H183.384V24.1719ZM195.425 27.1865C196.682 27.1865 197.525 28.1094 197.569 29.4277H193.219C193.307 28.127 194.194 27.1865 195.425 27.1865ZM197.578 32.2139C197.341 32.9873 196.567 33.4971 195.548 33.4971C194.115 33.4971 193.201 32.4951 193.201 31.001V30.8691H199.714V30.1572C199.714 27.3271 198.062 25.4902 195.416 25.4902C192.727 25.4902 191.021 27.4326 191.021 30.377C191.021 33.3477 192.709 35.1846 195.504 35.1846C197.71 35.1846 199.345 33.9717 199.626 32.2139H197.578ZM205.251 35.1846C207.984 35.1846 209.76 33.3652 209.76 30.3418C209.76 27.3271 207.967 25.4902 205.251 25.4902C202.535 25.4902 200.742 27.3359 200.742 30.3418C200.742 33.3652 202.518 35.1846 205.251 35.1846ZM205.251 33.4531C203.862 33.4531 202.966 32.3281 202.966 30.3418C202.966 28.3643 203.871 27.2305 205.251 27.2305C206.64 27.2305 207.536 28.3643 207.536 30.3418C207.536 32.3281 206.64 33.4531 205.251 33.4531ZM216.281 25.5254C214.928 25.5254 213.873 26.2109 213.346 27.292H213.302V25.6836H211.166V38.0674H213.354V33.4531H213.398C213.908 34.499 214.963 35.1494 216.316 35.1494C218.654 35.1494 220.148 33.3125 220.148 30.3418C220.148 27.3623 218.646 25.5254 216.281 25.5254ZM215.613 33.3564C214.251 33.3564 213.346 32.1699 213.337 30.3418C213.346 28.5312 214.251 27.3271 215.613 27.3271C217.028 27.3271 217.907 28.5049 217.907 30.3418C217.907 32.1875 217.028 33.3564 215.613 33.3564ZM221.616 35H223.805V22.3174H221.616V35ZM229.685 27.1865C230.941 27.1865 231.785 28.1094 231.829 29.4277H227.479C227.566 28.127 228.454 27.1865 229.685 27.1865ZM231.838 32.2139C231.601 32.9873 230.827 33.4971 229.808 33.4971C228.375 33.4971 227.461 32.4951 227.461 31.001V30.8691H233.974V30.1572C233.974 27.3271 232.321 25.4902 229.676 25.4902C226.986 25.4902 225.281 27.4326 225.281 30.377C225.281 33.3477 226.969 35.1846 229.764 35.1846C231.97 35.1846 233.604 33.9717 233.886 32.2139H231.838Z" fill="black"/>
<line x1="138" y1="55.5" x2="278" y2="55.5" stroke="#E3C36F"/>
<path d="M321.451 35.2109C324.255 35.2109 326.136 33.8135 326.716 31.3086H325.116C324.659 32.8555 323.323 33.752 321.46 33.752C318.955 33.752 317.364 31.7656 317.364 28.6543C317.364 25.5693 318.973 23.5654 321.451 23.5654C323.262 23.5654 324.712 24.6553 325.116 26.3164H326.716C326.312 23.7852 324.211 22.1064 321.451 22.1064C317.979 22.1064 315.738 24.6729 315.738 28.6543C315.738 32.6709 317.953 35.2109 321.451 35.2109ZM328.43 35H329.959V29.6738C329.959 28.0918 330.899 27.0547 332.42 27.0547C333.853 27.0547 334.582 27.9248 334.582 29.375V35H336.111V29.0938C336.111 27.0547 334.898 25.7012 332.895 25.7012C331.506 25.7012 330.504 26.2988 329.994 27.3184H329.959V22.3174H328.43V35ZM341.068 33.8574C339.97 33.8574 339.24 33.2861 339.24 32.416C339.24 31.5547 339.943 31.0098 341.174 30.9307L343.617 30.7812V31.5283C343.617 32.8467 342.51 33.8574 341.068 33.8574ZM340.726 35.1582C341.956 35.1582 343.116 34.4727 343.661 33.4268H343.696V35H345.146V28.6807C345.146 26.8613 343.793 25.7012 341.648 25.7012C339.486 25.7012 338.133 26.9141 338.027 28.4961H339.504C339.697 27.5996 340.436 27.0459 341.613 27.0459C342.879 27.0459 343.617 27.7139 343.617 28.8301V29.5947L340.998 29.7441C338.889 29.8672 337.685 30.8516 337.685 32.416C337.685 34.0596 338.906 35.1582 340.726 35.1582ZM347.581 23.6533V25.8594H346.219V27.1162H347.581V32.627C347.581 34.3848 348.231 35.0703 349.91 35.0703C350.271 35.0703 350.692 35.0439 350.877 35V33.7168C350.771 33.7344 350.42 33.7607 350.244 33.7607C349.462 33.7607 349.11 33.3828 349.11 32.5479V27.1162H350.886V25.8594H349.11V23.6533H347.581Z" fill="black"/>
<path d="M436.812 23.7236H439.774C441.409 23.7236 442.394 24.6289 442.394 26.1494C442.394 27.7051 441.471 28.584 439.845 28.584H436.812V23.7236ZM436.812 29.9814H439.845L442.561 35H444.415L441.479 29.7354C443.07 29.2344 444.028 27.8633 444.028 26.0967C444.028 23.8115 442.429 22.3174 439.985 22.3174H435.23V35H436.812V29.9814ZM449.451 27.0283C450.893 27.0283 451.851 28.1182 451.886 29.6475H446.92C447.017 28.127 448.019 27.0283 449.451 27.0283ZM451.851 32.3809C451.596 33.2422 450.743 33.8311 449.583 33.8311C447.939 33.8311 446.911 32.6797 446.911 30.9307V30.8428H453.468V30.2627C453.468 27.4941 451.947 25.7012 449.478 25.7012C446.955 25.7012 445.338 27.626 445.338 30.4648C445.338 33.3389 446.929 35.1582 449.548 35.1582C451.543 35.1582 453.09 33.9805 453.354 32.3809H451.851ZM454.856 28.3818C454.856 29.6299 455.647 30.4561 457.256 30.8691L458.864 31.2822C459.893 31.5547 460.271 31.9062 460.271 32.5566C460.271 33.3828 459.506 33.9102 458.267 33.9102C457.027 33.9102 456.307 33.4004 456.14 32.4512H454.61C454.769 34.0684 456.166 35.1582 458.17 35.1582C460.306 35.1582 461.809 34.0332 461.809 32.4424C461.809 31.0977 461.141 30.4297 459.295 29.9639L457.88 29.6211C456.843 29.3574 456.359 28.9355 456.359 28.3027C456.359 27.5029 457.098 26.9492 458.214 26.9492C459.339 26.9492 460.051 27.4941 460.156 28.373H461.615C461.545 26.8262 460.156 25.7012 458.267 25.7012C456.254 25.7012 454.856 26.8174 454.856 28.3818ZM467.188 35.1582C469.71 35.1582 471.415 33.3389 471.415 30.4297C471.415 27.5117 469.71 25.7012 467.188 25.7012C464.656 25.7012 462.951 27.5117 462.951 30.4297C462.951 33.3389 464.656 35.1582 467.188 35.1582ZM467.188 33.8135C465.57 33.8135 464.507 32.583 464.507 30.4297C464.507 28.2764 465.57 27.0459 467.188 27.0459C468.805 27.0459 469.859 28.2764 469.859 30.4297C469.859 32.583 468.805 33.8135 467.188 33.8135ZM480.468 25.8594H478.938V31.2295C478.938 32.7852 478.042 33.8047 476.557 33.8047C475.142 33.8047 474.447 33.0049 474.447 31.5195V25.8594H472.918V31.792C472.918 33.8662 474.087 35.1582 476.082 35.1582C477.488 35.1582 478.438 34.5693 478.982 33.5146H479.018V35H480.468V25.8594ZM482.454 35H483.983V29.3047C483.983 28.0127 484.757 27.1602 485.943 27.1602C486.312 27.1602 486.638 27.2041 486.761 27.248V25.7627C486.638 25.7451 486.409 25.7012 486.146 25.7012C485.073 25.7012 484.229 26.3428 483.931 27.3535H483.896V25.8594H482.454V35ZM495.163 28.8564C494.97 27.2129 493.607 25.7012 491.322 25.7012C488.8 25.7012 487.121 27.5469 487.121 30.4297C487.121 33.374 488.809 35.1582 491.34 35.1582C493.414 35.1582 494.943 33.875 495.181 32.0557H493.678C493.414 33.1543 492.597 33.8135 491.349 33.8135C489.767 33.8135 488.677 32.5566 488.677 30.4297C488.677 28.3555 489.749 27.0459 491.331 27.0459C492.676 27.0459 493.449 27.8633 493.669 28.8564H495.163ZM500.252 27.0283C501.693 27.0283 502.651 28.1182 502.687 29.6475H497.721C497.817 28.127 498.819 27.0283 500.252 27.0283ZM502.651 32.3809C502.396 33.2422 501.544 33.8311 500.384 33.8311C498.74 33.8311 497.712 32.6797 497.712 30.9307V30.8428H504.269V30.2627C504.269 27.4941 502.748 25.7012 500.278 25.7012C497.756 25.7012 496.139 27.626 496.139 30.4648C496.139 33.3389 497.729 35.1582 500.349 35.1582C502.344 35.1582 503.891 33.9805 504.154 32.3809H502.651ZM505.657 28.3818C505.657 29.6299 506.448 30.4561 508.057 30.8691L509.665 31.2822C510.693 31.5547 511.071 31.9062 511.071 32.5566C511.071 33.3828 510.307 33.9102 509.067 33.9102C507.828 33.9102 507.107 33.4004 506.94 32.4512H505.411C505.569 34.0684 506.967 35.1582 508.971 35.1582C511.106 35.1582 512.609 34.0332 512.609 32.4424C512.609 31.0977 511.941 30.4297 510.096 29.9639L508.681 29.6211C507.644 29.3574 507.16 28.9355 507.16 28.3027C507.16 27.5029 507.898 26.9492 509.015 26.9492C510.14 26.9492 510.852 27.4941 510.957 28.373H512.416C512.346 26.8262 510.957 25.7012 509.067 25.7012C507.055 25.7012 505.657 26.8174 505.657 28.3818Z" fill="black"/>
<path d="M601.475 35H603.136L598.46 22.3174H596.896L592.22 35H593.881L595.155 31.3701H600.2L601.475 35ZM597.651 24.2422H597.704L599.734 30.0254H595.621L597.651 24.2422ZM604.349 35H605.878V29.6211C605.878 28.0742 606.818 27.0547 608.26 27.0547C609.666 27.0547 610.36 27.8633 610.36 29.3398V35H611.89V29.0674C611.89 26.9932 610.729 25.7012 608.726 25.7012C607.311 25.7012 606.335 26.334 605.825 27.3184H605.79V25.8594H604.349V35ZM616.855 33.8574C615.757 33.8574 615.027 33.2861 615.027 32.416C615.027 31.5547 615.73 31.0098 616.961 30.9307L619.404 30.7812V31.5283C619.404 32.8467 618.297 33.8574 616.855 33.8574ZM616.513 35.1582C617.743 35.1582 618.903 34.4727 619.448 33.4268H619.483V35H620.934V28.6807C620.934 26.8613 619.58 25.7012 617.436 25.7012C615.273 25.7012 613.92 26.9141 613.814 28.4961H615.291C615.484 27.5996 616.223 27.0459 617.4 27.0459C618.666 27.0459 619.404 27.7139 619.404 28.8301V29.5947L616.785 29.7441C614.676 29.8672 613.472 30.8516 613.472 32.416C613.472 34.0596 614.693 35.1582 616.513 35.1582ZM622.955 35H624.484V22.3174H622.955V35ZM627.306 38.4189C628.958 38.4189 629.714 37.7773 630.496 35.6416L634.091 25.8594H632.482L629.951 33.4707H629.925L627.394 25.8594H625.759L629.134 35.0088L628.923 35.6504C628.571 36.7139 628.097 37.127 627.244 37.127C627.051 37.127 626.813 37.1182 626.646 37.083V38.3662C626.813 38.4014 627.121 38.4189 627.306 38.4189ZM635.796 23.6533V25.8594H634.434V27.1162H635.796V32.627C635.796 34.3848 636.446 35.0703 638.125 35.0703C638.485 35.0703 638.907 35.0439 639.092 35V33.7168C638.986 33.7344 638.635 33.7607 638.459 33.7607C637.677 33.7607 637.325 33.3828 637.325 32.5479V27.1162H639.101V25.8594H637.325V23.6533H635.796ZM640.814 35H642.344V25.8594H640.814V35ZM641.579 24.3213C642.106 24.3213 642.537 23.8906 642.537 23.3721C642.537 22.8447 642.106 22.4229 641.579 22.4229C641.061 22.4229 640.63 22.8447 640.63 23.3721C640.63 23.8906 641.061 24.3213 641.579 24.3213ZM652.003 28.8564C651.81 27.2129 650.447 25.7012 648.162 25.7012C645.64 25.7012 643.961 27.5469 643.961 30.4297C643.961 33.374 645.648 35.1582 648.18 35.1582C650.254 35.1582 651.783 33.875 652.021 32.0557H650.518C650.254 33.1543 649.437 33.8135 648.188 33.8135C646.606 33.8135 645.517 32.5566 645.517 30.4297C645.517 28.3555 646.589 27.0459 648.171 27.0459C649.516 27.0459 650.289 27.8633 650.509 28.8564H652.003ZM653.269 28.3818C653.269 29.6299 654.06 30.4561 655.668 30.8691L657.276 31.2822C658.305 31.5547 658.683 31.9062 658.683 32.5566C658.683 33.3828 657.918 33.9102 656.679 33.9102C655.439 33.9102 654.719 33.4004 654.552 32.4512H653.022C653.181 34.0684 654.578 35.1582 656.582 35.1582C658.718 35.1582 660.221 34.0332 660.221 32.4424C660.221 31.0977 659.553 30.4297 657.707 29.9639L656.292 29.6211C655.255 29.3574 654.771 28.9355 654.771 28.3027C654.771 27.5029 655.51 26.9492 656.626 26.9492C657.751 26.9492 658.463 27.4941 658.568 28.373H660.027C659.957 26.8262 658.568 25.7012 656.679 25.7012C654.666 25.7012 653.269 26.8174 653.269 28.3818Z" fill="black"/>
</svg>
