<svg width="8" height="10" viewBox="0 0 8 10" fill="none" xmlns="http://www.w3.org/2000/svg">
<path d="M3.65432 9.70322C5.9769 9.70322 7.09948 8.51612 7.09948 6.94193C7.09948 3.72903 2.15755 4.64516 2.15755 3.27741C2.15755 2.76128 2.59626 2.4129 3.38335 2.4129C4.26077 2.4129 5.1898 2.70967 5.88658 3.35483L6.90593 2.0129C6.05432 1.2258 4.91884 0.812897 3.55109 0.812897C1.52529 0.812897 0.286578 1.99999 0.286578 3.43225C0.286578 6.67096 5.24142 5.6258 5.24142 7.14838C5.24142 7.6387 4.75109 8.10322 3.74464 8.10322C2.55755 8.10322 1.61561 7.57419 1.00916 6.94193L0.0156097 8.33548C0.81561 9.14838 2.00271 9.70322 3.65432 9.70322Z" fill="#E3C36F"/>
</svg>
