<svg width="370" height="83" viewBox="0 0 370 83" fill="none" xmlns="http://www.w3.org/2000/svg">
<rect width="370" height="82" fill="white"/>
<circle cx="43" cy="42" r="24.5" stroke="#C4C4C4"/>
<path d="M33 41.635C33 41.8034 33 42.27 33.5 42.27C34 42.27 34.7813 42.27 35.4242 42.27H50.5758C51.2187 42.27 52 42.27 52.5 42.27C53 42.27 53 41.8034 53 41.635C53 41.4666 53 41 52.5 41C52 41 51.2187 41 50.5758 41H35.4242C34.7813 41 34 41 33.5 41C33 41 33 41.4666 33 41.635Z" fill="#E3C36F"/>
<path d="M42.635 52C42.8034 52 43.27 52 43.27 51.5C43.27 51 43.27 50.2187 43.27 49.5758V34.4242C43.27 33.7813 43.27 33 43.27 32.5C43.27 32 42.8034 32 42.635 32C42.4666 32 42 32 42 32.5C42 33 42 33.7813 42 34.4242V49.5758C42 50.2187 42 51 42 51.5C42 52 42.4666 52 42.635 52Z" fill="#E3C36F"/>
<path d="M86.4512 48.2109C89.2549 48.2109 91.1357 46.8135 91.7158 44.3086H90.1162C89.6592 45.8555 88.3232 46.752 86.46 46.752C83.9551 46.752 82.3643 44.7656 82.3643 41.6543C82.3643 38.5693 83.9727 36.5654 86.4512 36.5654C88.2617 36.5654 89.7119 37.6553 90.1162 39.3164H91.7158C91.3115 36.7852 89.2109 35.1064 86.4512 35.1064C82.9795 35.1064 80.7383 37.6729 80.7383 41.6543C80.7383 45.6709 82.9531 48.2109 86.4512 48.2109ZM93.3506 48H94.8799V42.3047C94.8799 41.0127 95.6533 40.1602 96.8398 40.1602C97.209 40.1602 97.5342 40.2041 97.6572 40.248V38.7627C97.5342 38.7451 97.3057 38.7012 97.042 38.7012C95.9697 38.7012 95.126 39.3428 94.8271 40.3535H94.792V38.8594H93.3506V48ZM102.131 40.0283C103.572 40.0283 104.53 41.1182 104.565 42.6475H99.5996C99.6963 41.127 100.698 40.0283 102.131 40.0283ZM104.53 45.3809C104.275 46.2422 103.423 46.8311 102.263 46.8311C100.619 46.8311 99.5908 45.6797 99.5908 43.9307V43.8428H106.147V43.2627C106.147 40.4941 104.627 38.7012 102.157 38.7012C99.6348 38.7012 98.0176 40.626 98.0176 43.4648C98.0176 46.3389 99.6084 48.1582 102.228 48.1582C104.223 48.1582 105.77 46.9805 106.033 45.3809H104.53ZM110.709 46.8574C109.61 46.8574 108.881 46.2861 108.881 45.416C108.881 44.5547 109.584 44.0098 110.814 43.9307L113.258 43.7812V44.5283C113.258 45.8467 112.15 46.8574 110.709 46.8574ZM110.366 48.1582C111.597 48.1582 112.757 47.4727 113.302 46.4268H113.337V48H114.787V41.6807C114.787 39.8613 113.434 38.7012 111.289 38.7012C109.127 38.7012 107.773 39.9141 107.668 41.4961H109.145C109.338 40.5996 110.076 40.0459 111.254 40.0459C112.52 40.0459 113.258 40.7139 113.258 41.8301V42.5947L110.639 42.7441C108.529 42.8672 107.325 43.8516 107.325 45.416C107.325 47.0596 108.547 48.1582 110.366 48.1582ZM117.222 36.6533V38.8594H115.859V40.1162H117.222V45.627C117.222 47.3848 117.872 48.0703 119.551 48.0703C119.911 48.0703 120.333 48.0439 120.518 48V46.7168C120.412 46.7344 120.061 46.7607 119.885 46.7607C119.103 46.7607 118.751 46.3828 118.751 45.5479V40.1162H120.526V38.8594H118.751V36.6533H117.222ZM125.562 40.0283C127.004 40.0283 127.962 41.1182 127.997 42.6475H123.031C123.128 41.127 124.13 40.0283 125.562 40.0283ZM127.962 45.3809C127.707 46.2422 126.854 46.8311 125.694 46.8311C124.051 46.8311 123.022 45.6797 123.022 43.9307V43.8428H129.579V43.2627C129.579 40.4941 128.059 38.7012 125.589 38.7012C123.066 38.7012 121.449 40.626 121.449 43.4648C121.449 46.3389 123.04 48.1582 125.659 48.1582C127.654 48.1582 129.201 46.9805 129.465 45.3809H127.962ZM137.832 46.8574C136.733 46.8574 136.004 46.2861 136.004 45.416C136.004 44.5547 136.707 44.0098 137.938 43.9307L140.381 43.7812V44.5283C140.381 45.8467 139.273 46.8574 137.832 46.8574ZM137.489 48.1582C138.72 48.1582 139.88 47.4727 140.425 46.4268H140.46V48H141.91V41.6807C141.91 39.8613 140.557 38.7012 138.412 38.7012C136.25 38.7012 134.896 39.9141 134.791 41.4961H136.268C136.461 40.5996 137.199 40.0459 138.377 40.0459C139.643 40.0459 140.381 40.7139 140.381 41.8301V42.5947L137.762 42.7441C135.652 42.8672 134.448 43.8516 134.448 45.416C134.448 47.0596 135.67 48.1582 137.489 48.1582ZM154.821 37.9365H154.909L157.836 48H159.33L162.784 35.3174H161.132L158.592 45.6709H158.521L155.665 35.3174H154.065L151.209 45.6709H151.139L148.599 35.3174H146.946L150.4 48H151.895L154.821 37.9365ZM166.871 40.0283C168.312 40.0283 169.271 41.1182 169.306 42.6475H164.34C164.437 41.127 165.438 40.0283 166.871 40.0283ZM169.271 45.3809C169.016 46.2422 168.163 46.8311 167.003 46.8311C165.359 46.8311 164.331 45.6797 164.331 43.9307V43.8428H170.888V43.2627C170.888 40.4941 169.367 38.7012 166.897 38.7012C164.375 38.7012 162.758 40.626 162.758 43.4648C162.758 46.3389 164.349 48.1582 166.968 48.1582C168.963 48.1582 170.51 46.9805 170.773 45.3809H169.271ZM176.979 48.1582C179.316 48.1582 180.863 46.3037 180.863 43.4297C180.863 40.5645 179.308 38.7012 177.005 38.7012C175.713 38.7012 174.649 39.3428 174.078 40.3887H174.043V35.3174H172.514V48H173.973V46.4531H174.008C174.597 47.5078 175.643 48.1582 176.979 48.1582ZM176.68 40.0459C178.297 40.0459 179.299 41.3555 179.299 43.4297C179.299 45.5215 178.297 46.8135 176.68 46.8135C175.133 46.8135 174.034 45.4688 174.034 43.4297C174.034 41.3994 175.133 40.0459 176.68 40.0459ZM182.498 48H184.027V38.8594H182.498V48ZM183.263 37.3213C183.79 37.3213 184.221 36.8906 184.221 36.3721C184.221 35.8447 183.79 35.4229 183.263 35.4229C182.744 35.4229 182.313 35.8447 182.313 36.3721C182.313 36.8906 182.744 37.3213 183.263 37.3213ZM186.093 48H187.622V42.6211C187.622 41.0742 188.562 40.0547 190.004 40.0547C191.41 40.0547 192.104 40.8633 192.104 42.3398V48H193.634V42.0674C193.634 39.9932 192.474 38.7012 190.47 38.7012C189.055 38.7012 188.079 39.334 187.569 40.3184H187.534V38.8594H186.093V48ZM198.6 46.8574C197.501 46.8574 196.771 46.2861 196.771 45.416C196.771 44.5547 197.475 44.0098 198.705 43.9307L201.148 43.7812V44.5283C201.148 45.8467 200.041 46.8574 198.6 46.8574ZM198.257 48.1582C199.487 48.1582 200.647 47.4727 201.192 46.4268H201.228V48H202.678V41.6807C202.678 39.8613 201.324 38.7012 199.18 38.7012C197.018 38.7012 195.664 39.9141 195.559 41.4961H197.035C197.229 40.5996 197.967 40.0459 199.145 40.0459C200.41 40.0459 201.148 40.7139 201.148 41.8301V42.5947L198.529 42.7441C196.42 42.8672 195.216 43.8516 195.216 45.416C195.216 47.0596 196.438 48.1582 198.257 48.1582ZM204.62 48H206.149V42.3047C206.149 41.0127 206.923 40.1602 208.109 40.1602C208.479 40.1602 208.804 40.2041 208.927 40.248V38.7627C208.804 38.7451 208.575 38.7012 208.312 38.7012C207.239 38.7012 206.396 39.3428 206.097 40.3535H206.062V38.8594H204.62V48ZM221.803 46.5762H215.686V35.3174H214.104V48H221.803V46.5762ZM226.32 46.8574C225.222 46.8574 224.492 46.2861 224.492 45.416C224.492 44.5547 225.195 44.0098 226.426 43.9307L228.869 43.7812V44.5283C228.869 45.8467 227.762 46.8574 226.32 46.8574ZM225.978 48.1582C227.208 48.1582 228.368 47.4727 228.913 46.4268H228.948V48H230.398V41.6807C230.398 39.8613 229.045 38.7012 226.9 38.7012C224.738 38.7012 223.385 39.9141 223.279 41.4961H224.756C224.949 40.5996 225.688 40.0459 226.865 40.0459C228.131 40.0459 228.869 40.7139 228.869 41.8301V42.5947L226.25 42.7441C224.141 42.8672 222.937 43.8516 222.937 45.416C222.937 47.0596 224.158 48.1582 225.978 48.1582ZM232.183 41.3818C232.183 42.6299 232.974 43.4561 234.582 43.8691L236.19 44.2822C237.219 44.5547 237.597 44.9062 237.597 45.5566C237.597 46.3828 236.832 46.9102 235.593 46.9102C234.354 46.9102 233.633 46.4004 233.466 45.4512H231.937C232.095 47.0684 233.492 48.1582 235.496 48.1582C237.632 48.1582 239.135 47.0332 239.135 45.4424C239.135 44.0977 238.467 43.4297 236.621 42.9639L235.206 42.6211C234.169 42.3574 233.686 41.9355 233.686 41.3027C233.686 40.5029 234.424 39.9492 235.54 39.9492C236.665 39.9492 237.377 40.4941 237.482 41.373H238.941C238.871 39.8262 237.482 38.7012 235.593 38.7012C233.58 38.7012 232.183 39.8174 232.183 41.3818ZM241.218 36.6533V38.8594H239.855V40.1162H241.218V45.627C241.218 47.3848 241.868 48.0703 243.547 48.0703C243.907 48.0703 244.329 48.0439 244.514 48V46.7168C244.408 46.7344 244.057 46.7607 243.881 46.7607C243.099 46.7607 242.747 46.3828 242.747 45.5479V40.1162H244.522V38.8594H242.747V36.6533H241.218ZM257.785 46.5762H251.668V35.3174H250.086V48H257.785V46.5762ZM259.367 48H260.896V38.8594H259.367V48ZM260.132 37.3213C260.659 37.3213 261.09 36.8906 261.09 36.3721C261.09 35.8447 260.659 35.4229 260.132 35.4229C259.613 35.4229 259.183 35.8447 259.183 36.3721C259.183 36.8906 259.613 37.3213 260.132 37.3213ZM262.962 48H264.491V42.6211C264.491 41.0742 265.432 40.0547 266.873 40.0547C268.279 40.0547 268.974 40.8633 268.974 42.3398V48H270.503V42.0674C270.503 39.9932 269.343 38.7012 267.339 38.7012C265.924 38.7012 264.948 39.334 264.438 40.3184H264.403V38.8594H262.962V48ZM274.062 42.9199V35.3174H272.533V48H274.062V44.5547L274.915 43.7461L278.308 48H280.083L275.996 42.8057L279.96 38.8594H278.105L274.062 42.9199Z" fill="#E3C36F"/>
<line y1="82.5" x2="370" y2="82.5" stroke="#CCCCCC"/>
</svg>
