<svg width="20" height="2" viewBox="0 0 20 2" fill="none" xmlns="http://www.w3.org/2000/svg">
<path d="M0 0.634986C0 0.803395 0 1.27001 0.5 1.27C1 1.27001 1.78129 1.26997 2.42424 1.26997L17.5758 1.26997C18.2187 1.26997 19 1.26997 19.5 1.26997C20 1.26997 20 0.803395 20 0.634986C20 0.466578 20 8.02941e-07 19.5 2.44722e-05C19 3.1764e-05 18.2187 8.02941e-07 17.5758 8.02941e-07L2.42424 8.02941e-07C1.78129 8.02941e-07 1 -7.29018e-06 0.5 2.79116e-05C0 -7.29018e-06 0 0.466578 0 0.634986Z" fill="#E3C36F"/>
</svg>
