<svg width="26" height="30" viewBox="0 0 26 30" fill="none" xmlns="http://www.w3.org/2000/svg">
<path d="M0 24.5254V28.5459C0 28.9316 0.153195 29.3014 0.425886 29.5741C0.698576 29.8468 1.06843 30 1.45407 30H24.5083C24.894 30 25.2638 29.8468 25.5365 29.5741C25.8092 29.3014 25.9624 28.9316 25.9624 28.5459V24.5254C25.9547 21.804 24.8682 19.1966 22.9411 17.275C21.014 15.3533 18.4036 14.2742 15.6821 14.2743H15.3186C16.9662 13.7198 18.363 12.5978 19.2596 11.1085C20.1562 9.61923 20.4943 7.85973 20.2134 6.14423C19.9325 4.42873 19.0509 2.86894 17.7261 1.74344C16.4013 0.617932 14.7195 0 12.9812 0C11.2428 0 9.5611 0.617932 8.2363 1.74344C6.9115 2.86894 6.02993 4.42873 5.74901 6.14423C5.4681 7.85973 5.80614 9.61923 6.70277 11.1085C7.5994 12.5978 8.99622 13.7198 10.6438 14.2743H10.2657C7.54678 14.2781 4.94008 15.3589 3.01613 17.2801C1.09218 19.2013 0.0076888 21.8065 0 24.5254ZM8.55719 7.32381C8.55719 6.44954 8.81644 5.59491 9.30216 4.86798C9.78787 4.14106 10.4782 3.57449 11.286 3.23992C12.0937 2.90535 12.9825 2.81782 13.8399 2.98838C14.6974 3.15894 15.485 3.57994 16.1032 4.19814C16.7214 4.81634 17.1424 5.60397 17.313 6.46144C17.4836 7.3189 17.396 8.20769 17.0614 9.01541C16.7269 9.82313 16.1603 10.5135 15.4334 10.9992C14.7065 11.4849 13.8518 11.7442 12.9776 11.7442C11.8058 11.7423 10.6826 11.2759 9.85401 10.4474C9.02545 9.61879 8.55911 8.49557 8.55719 7.32381ZM23.0542 24.5254V27.0919H2.90814V24.5254C2.9139 22.5772 3.69139 20.7106 5.07037 19.3344C6.44936 17.9581 8.31747 17.1843 10.2657 17.1824H15.6821C17.6329 17.1805 19.5047 17.9525 20.8869 19.3292C22.269 20.7059 23.0485 22.5747 23.0542 24.5254Z" fill="#999999"/>
</svg>
